<svg width="159" height="50" viewBox="0 0 159 50" fill="none" xmlns="http://www.w3.org/2000/svg">
<path d="M76.082 15.2266H79.1582V27.6899C79.1582 29.3908 78.6252 30.7417 77.5591 31.7427C76.5011 32.7437 75.1014 33.2441 73.3599 33.2441C71.5044 33.2441 70.0721 32.7762 69.063 31.8403C68.0539 30.9045 67.5493 29.6024 67.5493 27.9341H70.6255C70.6255 28.8781 70.8574 29.5902 71.3213 30.0703C71.7933 30.5423 72.4728 30.7783 73.3599 30.7783C74.1899 30.7783 74.8491 30.5057 75.3374 29.9604C75.8338 29.4071 76.082 28.6462 76.082 27.6777V15.2266ZM81.856 26.2739C81.856 24.98 82.1123 23.8162 82.625 22.7827C83.1377 21.741 83.8579 20.9435 84.7856 20.3901C85.7134 19.8286 86.7795 19.5479 87.9839 19.5479C89.7661 19.5479 91.2106 20.1216 92.3174 21.269C93.4323 22.4165 94.0345 23.9383 94.124 25.8345L94.1362 26.5303C94.1362 27.8324 93.884 28.9961 93.3794 30.0215C92.883 31.0469 92.1668 31.8403 91.231 32.4019C90.3032 32.9634 89.229 33.2441 88.0083 33.2441C86.1447 33.2441 84.6514 32.6257 83.5283 31.3887C82.4134 30.1436 81.856 28.4875 81.856 26.4204V26.2739ZM84.8223 26.5303C84.8223 27.8893 85.103 28.9554 85.6646 29.7285C86.2261 30.4935 87.0073 30.876 88.0083 30.876C89.0093 30.876 89.7865 30.4854 90.3398 29.7041C90.9014 28.9229 91.1821 27.7795 91.1821 26.2739C91.1821 24.9393 90.8932 23.8813 90.3154 23.1001C89.7458 22.3188 88.9686 21.9282 87.9839 21.9282C87.0155 21.9282 86.2464 22.3148 85.6768 23.0879C85.1071 23.8529 84.8223 25.0003 84.8223 26.5303ZM108.235 26.5303C108.235 28.5811 107.776 30.2127 106.856 31.4253C105.944 32.6379 104.687 33.2441 103.084 33.2441C101.538 33.2441 100.333 32.6867 99.4707 31.5718L99.3242 33H96.6387V14.25H99.605V21.0615C100.459 20.0524 101.611 19.5479 103.06 19.5479C104.671 19.5479 105.936 20.146 106.856 21.3423C107.776 22.5386 108.235 24.2109 108.235 26.3594V26.5303ZM105.269 26.2739C105.269 24.8416 105.017 23.7674 104.512 23.0513C104.008 22.3351 103.275 21.9771 102.315 21.9771C101.029 21.9771 100.126 22.5386 99.605 23.6616V29.106C100.134 30.2534 101.045 30.8271 102.339 30.8271C103.267 30.8271 103.983 30.4813 104.488 29.7896C104.992 29.0978 105.253 28.0521 105.269 26.6523V26.2739ZM113.887 33H110.921V19.792H113.887V33ZM110.738 16.3618C110.738 15.9061 110.88 15.5277 111.165 15.2266C111.458 14.9255 111.873 14.7749 112.41 14.7749C112.947 14.7749 113.362 14.9255 113.655 15.2266C113.948 15.5277 114.095 15.9061 114.095 16.3618C114.095 16.8094 113.948 17.1838 113.655 17.4849C113.362 17.7778 112.947 17.9243 112.41 17.9243C111.873 17.9243 111.458 17.7778 111.165 17.4849C110.88 17.1838 110.738 16.8094 110.738 16.3618ZM116.573 26.2739C116.573 24.98 116.829 23.8162 117.342 22.7827C117.854 21.741 118.575 20.9435 119.502 20.3901C120.43 19.8286 121.496 19.5479 122.701 19.5479C124.483 19.5479 125.927 20.1216 127.034 21.269C128.149 22.4165 128.751 23.9383 128.841 25.8345L128.853 26.5303C128.853 27.8324 128.601 28.9961 128.096 30.0215C127.6 31.0469 126.884 31.8403 125.948 32.4019C125.02 32.9634 123.946 33.2441 122.725 33.2441C120.861 33.2441 119.368 32.6257 118.245 31.3887C117.13 30.1436 116.573 28.4875 116.573 26.4204V26.2739ZM119.539 26.5303C119.539 27.8893 119.82 28.9554 120.381 29.7285C120.943 30.4935 121.724 30.876 122.725 30.876C123.726 30.876 124.503 30.4854 125.057 29.7041C125.618 28.9229 125.899 27.7795 125.899 26.2739C125.899 24.9393 125.61 23.8813 125.032 23.1001C124.463 22.3188 123.685 21.9282 122.701 21.9282C121.732 21.9282 120.963 22.3148 120.394 23.0879C119.824 23.8529 119.539 25.0003 119.539 26.5303Z" fill="#645CFF"/>
<rect width="50" height="50" rx="18" fill="#645CFF"/>
<path d="M26.0039 9.5625H31.8633V29.25C31.8633 31.0599 31.4596 32.6615 30.6523 34.0547C29.8581 35.4349 28.7318 36.5026 27.2734 37.2578C25.8151 38.013 24.168 38.3906 22.332 38.3906C19.3242 38.3906 16.9805 37.6289 15.3008 36.1055C13.6211 34.569 12.7812 32.401 12.7812 29.6016H18.6797C18.6797 30.9948 18.9727 32.0234 19.5586 32.6875C20.1445 33.3516 21.069 33.6836 22.332 33.6836C23.4518 33.6836 24.3438 33.2995 25.0078 32.5312C25.6719 31.763 26.0039 30.6693 26.0039 29.25V9.5625Z" fill="white"/>
</svg>
