<svg width="176" height="50" viewBox="0 0 176 50" fill="none" xmlns="http://www.w3.org/2000/svg">
<g filter="url(#filter0_d)">
<path d="M16.8902 8.40625H22.1637V26.125C22.1637 27.7539 21.8004 29.1953 21.0738 30.4492C20.359 31.6914 19.3453 32.6523 18.0328 33.332C16.7203 34.0117 15.2379 34.3516 13.5855 34.3516C10.8785 34.3516 8.76914 33.666 7.25742 32.2949C5.7457 30.9121 4.98985 28.9609 4.98985 26.4414H10.2984C10.2984 27.6953 10.5621 28.6211 11.0895 29.2188C11.6168 29.8164 12.4488 30.1152 13.5855 30.1152C14.5934 30.1152 15.3961 29.7695 15.9938 29.0781C16.5914 28.3867 16.8902 27.4023 16.8902 26.125V8.40625ZM29.1563 24.3145C29.1563 22.4277 29.5195 20.7461 30.2461 19.2695C30.9727 17.793 32.0156 16.6504 33.375 15.8418C34.7461 15.0332 36.334 14.6289 38.1387 14.6289C40.7051 14.6289 42.7969 15.4141 44.4141 16.9844C46.043 18.5547 46.9512 20.6875 47.1387 23.3828L47.1738 24.6836C47.1738 27.6016 46.3594 29.9453 44.7305 31.7148C43.1016 33.4727 40.916 34.3516 38.1738 34.3516C35.4316 34.3516 33.2402 33.4727 31.5996 31.7148C29.9707 29.957 29.1563 27.5664 29.1563 24.543V24.3145ZM34.2363 24.6836C34.2363 26.4883 34.5762 27.8711 35.2559 28.832C35.9355 29.7812 36.9082 30.2559 38.1738 30.2559C39.4043 30.2559 40.3652 29.7871 41.0566 28.8496C41.748 27.9004 42.0938 26.3887 42.0938 24.3145C42.0938 22.5449 41.748 21.1738 41.0566 20.2012C40.3652 19.2285 39.3926 18.7422 38.1387 18.7422C36.8965 18.7422 35.9355 19.2285 35.2559 20.2012C34.5762 21.1621 34.2363 22.6562 34.2363 24.6836ZM71.0414 24.666C71.0414 27.7129 70.391 30.0918 69.0902 31.8027C67.7895 33.502 65.973 34.3516 63.641 34.3516C61.5785 34.3516 59.932 33.5605 58.7016 31.9785L58.473 34H53.9027V7H58.9828V16.6855C60.1547 15.3145 61.6957 14.6289 63.6059 14.6289C65.9262 14.6289 67.7426 15.4844 69.0551 17.1953C70.3793 18.8945 71.0414 21.291 71.0414 24.3848V24.666ZM65.9613 24.2969C65.9613 22.375 65.6566 20.9746 65.0473 20.0957C64.4379 19.2051 63.5297 18.7598 62.3227 18.7598C60.7055 18.7598 59.5922 19.4219 58.9828 20.7461V28.252C59.6039 29.5879 60.7289 30.2559 62.3578 30.2559C63.9984 30.2559 65.0766 29.4473 65.5922 27.8301C65.8383 27.0566 65.9613 25.8789 65.9613 24.2969ZM88.0887 28.7441C88.0887 28.123 87.7781 27.6367 87.157 27.2852C86.5477 26.9219 85.5633 26.5996 84.2039 26.3184C79.6805 25.3691 77.4188 23.4473 77.4188 20.5527C77.4188 18.8652 78.116 17.459 79.5106 16.334C80.9168 15.1973 82.7508 14.6289 85.0125 14.6289C87.4266 14.6289 89.3543 15.1973 90.7957 16.334C92.2488 17.4707 92.9754 18.9473 92.9754 20.7637H87.8953C87.8953 20.0371 87.6609 19.4395 87.1922 18.9707C86.7234 18.4902 85.991 18.25 84.9949 18.25C84.1395 18.25 83.4773 18.4434 83.0086 18.8301C82.5398 19.2168 82.3055 19.709 82.3055 20.3066C82.3055 20.8691 82.5691 21.3262 83.0965 21.6777C83.6356 22.0176 84.5379 22.3164 85.8035 22.5742C87.0691 22.8203 88.1356 23.1016 89.0027 23.418C91.6863 24.4023 93.0281 26.1074 93.0281 28.5332C93.0281 30.2676 92.284 31.6738 90.7957 32.752C89.3074 33.8184 87.3856 34.3516 85.0301 34.3516C83.4363 34.3516 82.0184 34.0703 80.7762 33.5078C79.5457 32.9336 78.5789 32.1543 77.8758 31.1699C77.1727 30.1738 76.8211 29.1016 76.8211 27.9531H81.6375C81.6844 28.8555 82.0184 29.5469 82.6395 30.0273C83.2606 30.5078 84.0926 30.748 85.1356 30.748C86.1082 30.748 86.8406 30.5664 87.3328 30.2031C87.8367 29.8281 88.0887 29.3418 88.0887 28.7441Z" fill="#222222"/>
<path d="M114.698 28.7266H105.452L103.695 34H98.0871L107.614 8.40625H112.501L122.081 34H116.474L114.698 28.7266ZM106.876 24.4551H113.275L110.058 14.875L106.876 24.4551ZM144.015 24.666C144.015 27.5957 143.347 29.9453 142.011 31.7148C140.687 33.4727 138.894 34.3516 136.632 34.3516C134.711 34.3516 133.158 33.6836 131.974 32.3477V41.3125H126.894V14.9805H131.605L131.781 16.8438C133.011 15.3672 134.617 14.6289 136.597 14.6289C138.941 14.6289 140.763 15.4961 142.064 17.2305C143.365 18.9648 144.015 21.3555 144.015 24.4023V24.666ZM138.935 24.2969C138.935 22.5273 138.619 21.1621 137.986 20.2012C137.365 19.2402 136.457 18.7598 135.261 18.7598C133.668 18.7598 132.572 19.3691 131.974 20.5879V28.375C132.595 29.6289 133.703 30.2559 135.296 30.2559C137.722 30.2559 138.935 28.2695 138.935 24.2969ZM167.9 24.666C167.9 27.5957 167.232 29.9453 165.896 31.7148C164.572 33.4727 162.779 34.3516 160.518 34.3516C158.596 34.3516 157.043 33.6836 155.859 32.3477V41.3125H150.779V14.9805H155.49L155.666 16.8438C156.896 15.3672 158.502 14.6289 160.482 14.6289C162.826 14.6289 164.648 15.4961 165.949 17.2305C167.25 18.9648 167.9 21.3555 167.9 24.4023V24.666ZM162.82 24.2969C162.82 22.5273 162.504 21.1621 161.871 20.2012C161.25 19.2402 160.342 18.7598 159.146 18.7598C157.553 18.7598 156.457 19.3691 155.859 20.5879V28.375C156.48 29.6289 157.588 30.2559 159.182 30.2559C161.607 30.2559 162.82 28.2695 162.82 24.2969Z" fill="#645CFF"/>
</g>
<defs>
<filter id="filter0_d" x="0.989845" y="7" width="170.911" height="42.3125" filterUnits="userSpaceOnUse" color-interpolation-filters="sRGB">
<feFlood flood-opacity="0" result="BackgroundImageFix"/>
<feColorMatrix in="SourceAlpha" type="matrix" values="0 0 0 0 0 0 0 0 0 0 0 0 0 0 0 0 0 0 127 0"/>
<feOffset dy="4"/>
<feGaussianBlur stdDeviation="2"/>
<feColorMatrix type="matrix" values="0 0 0 0 0 0 0 0 0 0 0 0 0 0 0 0 0 0 0.25 0"/>
<feBlend mode="normal" in2="BackgroundImageFix" result="effect1_dropShadow"/>
<feBlend mode="normal" in="SourceGraphic" in2="effect1_dropShadow" result="shape"/>
</filter>
</defs>
</svg>
